<svg xmlns="http://www.w3.org/2000/svg" viewBox="0 0 32 32" width="32" height="32" fill="none">
  <rect width="32" height="32" rx="9" fill="#1a1a2e"/>
  <path
    fill="url(#ht)"
    d="M16 26.2c-.4 0-.8-.14-1.1-.42C9.9 21.7 6 17.8 4.2 14.8 2.6 12.1 2.4 9.7 3.5 7.7c1-1.8 3-2.9 5.1-2.9 1.5 0 2.9.6 3.9 1.6l.5.5.5-.55c1-1.1 2.5-1.75 4.1-1.75 2.1 0 4.1 1.1 5.1 2.95 1.1 2 .9 4.4-.8 7.1-1.8 3-5.7 6.9-10.7 11-.3.28-.7.42-1.1.42z"
  />
  <defs>
    <linearGradient id="ht" x1="6" x2="28" y1="4" y2="28" gradientUnits="userSpaceOnUse">
      <stop stop-color="#6ef0e6"/>
      <stop offset="1" stop-color="#3ba89f"/>
    </linearGradient>
  </defs>
</svg>
